# xmcd
#
# Track frame offsets:
#	150
#	29872
#	60722
#	78200
#	103512
#	136800
#	166720
#
# Disc length: 2413 seconds
#
# Revision: 0
# Processed by: cddbd v1.4PL0 Copyright (c) Steve Scherf et al.
# Submitted via: dBpowerAMP V4.0
#
DISCID=51096b07
DTITLE=Van Straaten - Ivory Tower Blue
DYEAR=1900
DGENRE=
TTITLE0=Golden Light
TTITLE1=Ne Zil Râ
TTITLE2=Male Or Female?
TTITLE3=Early
TTITLE4=Memeth
TTITLE5=Elève-Toi
TTITLE6=Orientango
EXTD=
EXTT0=
EXTT1=
EXTT2=
EXTT3=
EXTT4=
EXTT5=
EXTT6=
PLAYORDER=
